<svg width="240" height="62" viewBox="0 0 240 62" fill="none" xmlns="http://www.w3.org/2000/svg">
<path d="M30.5346 0.916016C24.4955 0.916016 18.5918 2.70681 13.5704 6.062C8.54903 9.41719 4.63542 14.186 2.32432 19.7655C0.0132242 25.345 -0.591456 31.4845 0.586731 37.4076C1.76492 43.3308 4.67297 48.7716 8.94332 53.0419C13.2137 57.3123 18.6545 60.2203 24.5777 61.3985C30.5008 62.5767 36.6403 61.972 42.2198 59.6609C47.7992 57.3498 52.5682 53.4361 55.9234 48.4147C59.2786 43.3933 61.0694 37.4898 61.0694 31.4506C61.0694 23.3523 57.8523 15.5857 52.1259 9.85931C46.3996 4.13295 38.6329 0.916016 30.5346 0.916016ZM41.211 46.716H19.8604C18.6428 46.716 17.4751 46.2323 16.6141 45.3713C15.7531 44.5103 15.2693 43.3426 15.2693 42.125V20.7744C15.2693 19.5568 15.7531 18.389 16.6141 17.528C17.4751 16.667 18.6428 16.1833 19.8604 16.1833H41.211C42.4286 16.1833 43.5963 16.667 44.4573 17.528C45.3183 18.389 45.8021 19.5568 45.8021 20.7744V42.125C45.8021 43.3426 45.3183 44.5103 44.4573 45.3713C43.5963 46.2323 42.4286 46.716 41.211 46.716Z" fill="#FF562E"/>
<path d="M79.8866 50.9191H87.0009V34.3835C87.0009 28.0803 90.6833 24.0248 95.9918 24.0248C100.921 24.0248 103.917 27.581 103.917 33.2605V50.9191H111.031V32.5738C111.031 23.4012 105.853 17.536 97.3041 17.536C95.2194 17.4717 93.1457 17.8626 91.2275 18.6816C89.3093 19.5006 87.5928 20.728 86.1974 22.2782L85.4495 18.3471H79.8866V50.9191ZM134.611 51.7302C144.906 51.7302 152.21 44.679 152.21 34.6321C152.21 24.6484 144.91 17.5341 134.611 17.5341C124.252 17.5341 116.952 24.6484 116.952 34.6321C116.952 44.6752 124.252 51.7263 134.611 51.7263V51.7302ZM124.003 34.6321C123.939 33.2221 124.169 31.8141 124.68 30.4981C125.19 29.1821 125.969 27.9869 126.967 26.9889C127.965 25.9908 129.161 25.2117 130.477 24.7013C131.793 24.191 133.201 23.9606 134.611 24.0248C136.016 23.9667 137.419 24.2018 138.729 24.7151C140.039 25.2284 141.227 26.0088 142.219 27.0065C143.211 28.0042 143.985 29.1974 144.49 30.5102C144.996 31.8231 145.223 33.2268 145.157 34.6321C145.223 36.0375 144.996 37.4412 144.49 38.7541C143.985 40.0669 143.211 41.2601 142.219 42.2578C141.227 43.2555 140.039 44.0358 138.729 44.5492C137.419 45.0625 136.016 45.2976 134.611 45.2395C133.2 45.3037 131.792 45.0732 130.476 44.5626C129.159 44.0521 127.964 43.2726 126.966 42.2741C125.968 41.2756 125.189 40.08 124.679 38.7635C124.169 37.447 123.939 36.0387 124.003 34.6283V34.6321ZM158.819 50.9191H165.933V4.74023H158.821L158.819 50.9191ZM187.896 51.7302C189.954 51.8 192.002 51.4107 193.89 50.5904C195.779 49.7701 197.462 48.5395 198.815 46.9879L199.626 50.9191H205.174V18.3433H198.069V34.8789C198.069 41.1821 194.45 45.2376 189.208 45.2376C184.342 45.2376 181.409 41.6814 181.409 36.0018V18.3433H174.295V36.6886C174.295 45.8612 179.349 51.7263 187.898 51.7263L187.896 51.7302ZM226.396 51.7302C234.695 51.7302 239.999 47.9865 239.999 42.1214C239.999 36.8799 235.82 33.3849 227.644 31.8258C221.404 30.5786 219.469 29.4538 219.469 27.1467C219.469 24.7134 221.715 23.2787 225.522 23.2787C229.702 23.2787 232.198 24.964 232.449 27.9578H239.437C239.001 21.3428 233.889 17.5379 225.522 17.5379C217.285 17.5379 212.481 21.0329 212.481 27.0855C212.481 32.3901 216.349 35.5714 224.711 36.9449C230.45 37.9435 233.009 39.5025 233.009 41.9989C233.009 44.4322 230.576 45.867 226.458 45.867C221.778 45.867 218.97 43.8698 218.846 40.5623H211.86C211.86 47.2959 217.662 51.7263 226.398 51.7263L226.396 51.7302Z" fill="white"/>
</svg>
