<svg width="80" height="81" viewBox="0 0 80 81" fill="none" xmlns="http://www.w3.org/2000/svg">
<g clip-path="url(#clip0_5177_7392)">
<path d="M40 0.0078125C17.9069 0.0078125 3.05176e-05 17.9147 3.05176e-05 40.0078C3.05176e-05 62.1009 17.9069 80.0078 40 80.0078C62.0931 80.0078 80 62.1009 80 40.0078C80 17.9147 62.087 0.0078125 40 0.0078125ZM53.9824 60.0078H26.0116C22.6894 60.0078 19.9939 57.3123 19.9939 53.9902V26.0255C19.9939 22.7033 22.6894 20.0078 26.0116 20.0078H53.9824C57.3046 20.0078 60 22.7033 60 26.0255V53.9963C60 57.3184 57.3046 60.0139 53.9824 60.0139V60.0078Z" fill="#FF562E"/>
</g>
<defs>
<clipPath id="clip0_5177_7392">
<rect y="0.0078125" width="80" height="80" rx="12" fill="white"/>
</clipPath>
</defs>
</svg>
