<svg width="240" height="63" viewBox="0 0 240 63" fill="none" xmlns="http://www.w3.org/2000/svg">
<path d="M30.5346 0.916016C24.4955 0.916016 18.5918 2.70744 13.5704 6.06382C8.54903 9.42021 4.63542 14.1907 2.32432 19.7722C0.0132242 25.3537 -0.591456 31.4953 0.586731 37.4206C1.76492 43.3458 4.67297 48.7886 8.94332 53.0604C13.2137 57.3323 18.6545 60.2414 24.5777 61.42C30.5008 62.5986 36.6403 61.9937 42.2198 59.6818C47.7992 57.3699 52.5682 53.4547 55.9234 48.4316C59.2786 43.4084 61.0694 37.5028 61.0694 31.4615C61.0694 23.3603 57.8523 15.5909 52.1259 9.86248C46.3996 4.13409 38.6329 0.916016 30.5346 0.916016ZM41.211 46.7323H19.8604C18.6428 46.7323 17.4751 46.2484 16.6141 45.3871C15.7531 44.5258 15.2693 43.3577 15.2693 42.1396V20.7815C15.2693 19.5634 15.7531 18.3952 16.6141 17.5339C17.4751 16.6726 18.6428 16.1887 19.8604 16.1887H41.211C42.4286 16.1887 43.5963 16.6726 44.4573 17.5339C45.3183 18.3952 45.8021 19.5634 45.8021 20.7815V42.1396C45.8021 43.3577 45.3183 44.5258 44.4573 45.3871C43.5963 46.2484 42.4286 46.7323 41.211 46.7323Z" fill="#FF562E"/>
<path d="M79.8866 50.9364H87.0009V34.3949C87.0009 28.0895 90.6834 24.0326 95.9918 24.0326C100.922 24.0326 103.917 27.59 103.917 33.2716V50.9364H111.032V32.5846C111.032 23.4087 105.853 17.5415 97.3041 17.5415C95.2194 17.4771 93.1457 17.8682 91.2275 18.6875C89.3093 19.5068 87.5928 20.7346 86.1975 22.2854L85.4495 18.3529H79.8866V50.9364ZM134.611 51.7478C144.906 51.7478 152.21 44.6941 152.21 34.6437C152.21 24.6564 144.91 17.5396 134.611 17.5396C124.252 17.5396 116.952 24.6564 116.952 34.6437C116.952 44.6903 124.252 51.744 134.611 51.744V51.7478ZM124.003 34.6437C123.939 33.2332 124.17 31.8247 124.68 30.5082C125.19 29.1918 125.969 27.9962 126.967 26.9977C127.965 25.9993 129.161 25.2199 130.477 24.7094C131.793 24.1989 133.201 23.9684 134.611 24.0326C136.016 23.9745 137.419 24.2096 138.729 24.7232C140.039 25.2367 141.227 26.0173 142.219 27.0153C143.211 28.0134 143.985 29.207 144.49 30.5203C144.996 31.8337 145.223 33.2379 145.157 34.6437C145.223 36.0495 144.996 37.4538 144.49 38.7671C143.985 40.0804 143.211 41.2741 142.219 42.2721C141.227 43.2702 140.039 44.0508 138.729 44.5643C137.419 45.0778 136.016 45.313 134.611 45.2548C133.2 45.3191 131.792 45.0885 130.476 44.5777C129.159 44.067 127.964 43.2873 126.966 42.2884C125.968 41.2896 125.189 40.0935 124.679 38.7765C124.169 37.4596 123.939 36.0507 124.003 34.6399V34.6437ZM158.819 50.9364H165.933V4.74121H158.821L158.819 50.9364ZM187.896 51.7478C189.954 51.8177 192.002 51.4282 193.89 50.6076C195.779 49.7871 197.462 48.556 198.815 47.0039L199.626 50.9364H205.174V18.3491H198.069V34.8906C198.069 41.196 194.45 45.2529 189.208 45.2529C184.342 45.2529 181.409 41.6955 181.409 36.0139V18.3491H174.295V36.7009C174.295 45.8768 179.349 51.744 187.898 51.744L187.896 51.7478ZM226.396 51.7478C234.695 51.7478 239.999 48.0028 239.999 42.1356C239.999 36.8922 235.82 33.396 227.644 31.8364C221.404 30.5887 219.47 29.4635 219.47 27.1557C219.47 24.7215 221.715 23.2863 225.522 23.2863C229.702 23.2863 232.198 24.9722 232.449 27.967H239.437C239.001 21.3497 233.889 17.5434 225.522 17.5434C217.285 17.5434 212.481 21.0397 212.481 27.0944C212.481 32.4009 216.349 35.5833 224.711 36.9573C230.45 37.9562 233.009 39.5158 233.009 42.0131C233.009 44.4473 230.576 45.8825 226.458 45.8825C221.778 45.8825 218.97 43.8847 218.846 40.576H211.86C211.86 47.312 217.662 51.744 226.398 51.744L226.396 51.7478Z" fill="#082D63"/>
</svg>
