<svg width="256" height="256" viewBox="0 0 256 256" fill="none" xmlns="http://www.w3.org/2000/svg">
<g clip-path="url(#clip0_4983_10608)">
<path d="M128 0C57.3021 0 0 57.3021 0 128C0 198.698 57.3021 256 128 256C198.698 256 256 198.698 256 128C256 57.3021 198.678 0 128 0ZM172.744 192H83.237C72.606 192 63.9805 183.375 63.9805 172.744V83.2565C63.9805 72.6255 72.606 64 83.237 64H172.744C183.375 64 192 72.6255 192 83.2565V172.763C192 183.394 183.375 192.019 172.744 192.019V192Z" fill="#FF562E"/>
</g>
<defs>
<clipPath id="clip0_4983_10608">
<rect width="256" height="256" rx="12" fill="white"/>
</clipPath>
</defs>
</svg>
